<?xml version="1.0" encoding="UTF-8"?>
<svg id="Calque_2" data-name="Calque 2" xmlns="http://www.w3.org/2000/svg" viewBox="0 0 1045.64 1045.64">
  <g id="Calque_1-2" data-name="Calque 1">
    <path d="m719.76,477.24l-3.12.58c-2.92.51-5.02,1.14-6.3,1.88-2.16,1.25-3.24,3.19-3.24,5.82,0,2.34.66,4.03,1.98,5.07,1.32,1.04,2.92,1.56,4.81,1.56,2.99,0,5.75-.87,8.27-2.6,2.52-1.73,3.83-4.89,3.93-9.47v-5.1c-.88.55-1.76.99-2.66,1.32-.89.34-2.12.65-3.68.94Zm201.9-218.87c5.44,0,10.08-1.95,13.94-5.85,3.85-3.92,5.78-8.62,5.78-14.1s-1.92-9.95-5.75-13.87c-3.88-3.98-8.53-5.98-13.97-5.98s-10.19,1.99-14.07,5.98c-3.81,3.9-5.72,8.52-5.72,13.87s1.94,10.26,5.82,14.13c3.85,3.88,8.51,5.82,13.97,5.82Zm-10.49-33.17c1.65,0,4.11,0,7.39.02,3.28.01,5.11.03,5.47.05,2.1.15,3.84.61,5.23,1.36,2.36,1.3,3.54,3.41,3.54,6.34,0,2.23-.62,3.84-1.87,4.83-1.25.99-2.78,1.58-4.6,1.78,1.67.35,2.92.86,3.77,1.53,1.56,1.26,2.34,3.25,2.34,5.95v2.37c0,.26.02.52.05.78.04.26.1.52.19.78l.24.75h-6.63c-.22-.84-.36-2.07-.44-3.67-.08-1.6-.22-2.69-.44-3.25-.35-.93-1-1.58-1.95-1.95-.52-.22-1.31-.36-2.37-.42l-1.53-.1h-1.46v9.39h-6.95v-26.54Zm-64.52,230.58c1.92-1.17,2.88-3.24,2.88-6.22,0-3.3-1.27-5.48-3.8-6.54-2.19-.74-4.98-1.11-8.37-1.11h-15.41v15.62h17.22c3.08,0,5.57-.58,7.49-1.75Zm-.19,14.68c-1.68-.77-4.04-1.17-7.08-1.2h-17.44v18.89h17.2c3.07,0,5.46-.42,7.18-1.25,3.1-1.54,4.66-4.49,4.66-8.84,0-3.68-1.51-6.22-4.51-7.59ZM892.35,0H153.29C68.98,0,0,68.98,0,153.29v739.05c0,84.31,68.98,153.29,153.29,153.29h739.05c84.31,0,153.29-68.98,153.29-153.29V153.29c0-84.31-68.98-153.29-153.29-153.29Zm12.85,220.97c4.68-4.33,10.17-6.5,16.47-6.5s12.25,2.34,16.93,7.02c4.68,4.68,7.02,10.32,7.02,16.93s-2.39,12.53-7.18,17.19c-4.66,4.5-10.25,6.76-16.76,6.76s-12.41-2.31-17.02-6.92-6.92-10.29-6.92-17.02,2.49-12.81,7.47-17.45Zm-38.23-4.77c11.97,67.92-50.59,83.8-63.4,86.32,14.27-41.2,46.21-59.13,46.21-59.13-34.57,13.34-47.68,48.93-49.53,57.24-26.27-59.65,66.72-84.43,66.72-84.43Zm-132.35-46.68c103.38,89.96,16.63,191.14-2.03,210.74-26.18-80.97,6.11-147.77,6.11-147.77-42.34,62.94-21.07,133.85-14.04,148.92-117.54-59.69,9.97-211.89,9.97-211.89Zm29.79,314.69c1.64,4.36,4.72,6.54,9.25,6.54,3.21,0,5.49-.87,6.84-2.6,1.35-1.73,2.17-3.97,2.46-6.73h13.99c-.32,4.17-1.83,8.11-4.52,11.82-4.3,5.99-10.67,8.99-19.1,8.99s-14.64-2.5-18.62-7.5-5.97-11.48-5.97-19.44c0-8.99,2.2-15.98,6.59-20.98s10.46-7.5,18.19-7.5c6.58,0,11.96,1.47,16.14,4.42,4.19,2.95,6.66,8.16,7.43,15.62h-14.04c-.26-1.95-.92-3.72-1.98-5.29-1.54-2.12-3.94-3.17-7.18-3.17-4.63,0-7.79,2.29-9.49,6.87-.9,2.43-1.35,5.66-1.35,9.68s.45,6.92,1.35,9.25Zm-40.53-25.16c-1.51-.82-3.73-1.23-6.65-1.23-3.28,0-5.6.8-6.97,2.4-.97,1.19-1.62,2.79-1.95,4.81h-13.22c.29-4.58,1.58-8.35,3.86-11.3,3.64-4.61,9.88-6.92,18.73-6.92,5.76,0,10.88,1.14,15.35,3.41s6.71,6.57,6.71,12.88v24.03c0,1.67.03,3.69.1,6.06.1,1.79.37,3.01.82,3.65.45.64,1.12,1.17,2.02,1.59v2.02h-14.9c-.42-1.06-.71-2.05-.87-2.98-.16-.93-.29-1.99-.38-3.17-1.9,2.05-4.09,3.8-6.58,5.24-2.97,1.7-6.32,2.55-10.06,2.55-4.77,0-8.71-1.35-11.82-4.06-3.11-2.71-4.67-6.54-4.67-11.51,0-6.44,2.5-11.1,7.51-13.99,2.74-1.57,6.78-2.69,12.11-3.36l4.7-.58c2.55-.32,4.37-.72,5.47-1.2,1.97-.83,2.95-2.13,2.95-3.89,0-2.15-.75-3.63-2.27-4.45Zm-105.48-29.44l9.35,40.57,2.04,11.29,2.04-11.06,8-40.8h15.62l8.42,40.57,2.16,11.3,2.19-10.86,9.44-41.01h15.07l-19.93,70.85h-14.18l-8.56-41.43-2.5-13.7-2.5,13.7-8.56,41.43h-13.75l-20.09-70.85h15.72Zm12.01,446.51c-65.4,0-123.77-87.14-161.92-223.4-38.16,136.26-96.51,223.4-161.92,223.4-114.95,0-208.16-289.94-208.16-647.62h92.53c0,332.12,51.78,601.35,115.64,601.35s115.66-248.52,115.66-555.11h92.51c0,306.59,51.8,555.11,115.67,555.11,40.93,0,76.9-110.63,97.45-277.54h82.87c-36,193.57-103.28,323.81-180.32,323.81Zm232.36-385.76c-1.34,2.21-3.01,4.07-5.02,5.58-2.26,1.73-4.93,2.92-8.01,3.56-3.07.64-6.41.96-10.01.96h-31.92v-70.85h34.24c8.64.13,14.76,2.64,18.36,7.55,2.17,3.01,3.25,6.62,3.25,10.81s-1.09,7.8-3.28,10.43c-1.22,1.47-3.02,2.82-5.4,4.04,3.62,1.31,6.34,3.4,8.18,6.25,1.84,2.85,2.76,6.31,2.76,10.38s-1.05,7.96-3.15,11.3Zm28.87,10.09h-13.89v-52.39h13.89v52.39Zm0-58.64h-13.89v-12.64h13.89v12.64Zm-107.31-62.44c40.52-46.11,89.78-54.04,89.78-54.04-49.92.82-85.89,40.27-92.79,50.06,1-88.88,129.09-76.81,129.09-76.81-23.19,92.73-108.91,83.61-126.07,80.8Zm164.27,114.67c-4.42,5.46-11.14,8.19-20.14,8.19s-15.72-2.73-20.14-8.19c-4.42-5.46-6.63-12.03-6.63-19.71s2.21-14.1,6.63-19.64c4.42-5.54,11.13-8.31,20.14-8.31s15.72,2.77,20.14,8.31c4.42,5.54,6.63,12.09,6.63,19.64s-2.21,14.26-6.63,19.71Zm-20.19-36.08c-4.01,0-7.09,1.42-9.25,4.25-2.16,2.83-3.24,6.87-3.24,12.12s1.08,9.3,3.24,12.14c2.16,2.85,5.25,4.27,9.25,4.27s7.08-1.42,9.23-4.27c2.15-2.85,3.22-6.9,3.22-12.14s-1.07-9.29-3.22-12.12c-2.15-2.83-5.22-4.25-9.23-4.25Zm-3.79-221.36c.91-.65,1.37-1.7,1.37-3.15s-.71-2.46-2.14-3.02c-.95-.37-2.3-.55-4.03-.55h-1.69v7.7h2.7c1.62,0,2.89-.33,3.8-.97Z" style="fill: #84c1b1; stroke-width: 0px;"/>
  </g>
</svg>